PathFileType	3	(X/Y/Z)	D:\Jess\Healthy\Labelled\HA21\20251027\SRRun01.trc
DataRate	CameraRate	NumFrames	NumMarkers	Units	OrigDataRate	OrigDataStartFrame	OrigNumFrames
250.0	250.0	4	33	mm	250.0	36000	4001
Frame#	Time	C7			T10			CLAV			LSHO			RSHO			LASIS			RASIS			LPSIS			RPSIS			LILCR			RILCR			LGTR			LTHI			LLTHI			LLEP			LPSH			LLSH			LDSH			LLMAL			LTOE			L5TH			LHEE			RGTR			RTHI			RLTHI			RLEP			RPSH			RLSH			RDSH			RLMAL			RTOE			R5TH			RHEE			
		X1	Y1	Z1	X2	Y2	Z2	X3	Y3	Z3	X4	Y4	Z4	X5	Y5	Z5	X6	Y6	Z6	X7	Y7	Z7	X8	Y8	Z8	X9	Y9	Z9	X10	Y10	Z10	X11	Y11	Z11	X12	Y12	Z12	X13	Y13	Z13	X14	Y14	Z14	X15	Y15	Z15	X16	Y16	Z16	X17	Y17	Z17	X18	Y18	Z18	X19	Y19	Z19	X20	Y20	Z20	X21	Y21	Z21	X22	Y22	Z22	X23	Y23	Z23	X24	Y24	Z24	X25	Y25	Z25	X26	Y26	Z26	X27	Y27	Z27	X28	Y28	Z28	X29	Y29	Z29	X30	Y30	Z30	X31	Y31	Z31	X32	Y32	Z32	X33	Y33	Z33	

1	143.996	810.3717903468538	1544.829608612302	-916.6824902788891	801.2204021355881	1324.699112267417	-879.9757689508679	861.3730849812068	1486.690025746824	-1063.731693910802	686.0326838081248	1547.714640249788	-1035.169469778722	979.3568314464351	1535.262890997456	-972.3477173145695	706.646553974721	1028.243468794614	-1048.641170197291	935.207601927835	1054.979494560361	-1049.373874500974	795.9738975838019	1113.888564915075	-873.1406706925228	827.5877806935044	1115.003505200537	-868.8345733522417	661.4443750781303	1133.765014186893	-1029.079577873835	987.7093367498622	1153.36084670862	-954.4712681164763	639.1686249954863	924.4327272560195	-936.1548424039948	727.9824227768008	726.6120213030435	-987.4394385272172	674.1407802969931	701.3683622322054	-846.8959873816107	701.9155989412189	572.9954955324358	-777.4486460420734	752.6523153034045	470.6745451573315	-762.3207066833558	698.7464319864297	454.529759291688	-628.940764144109	756.5923398081345	360.182108441557	-613.0677159351698	728.2354687763935	310.5782949407533	-472.9463379136592	753.0617798062032	149.7447625277535	-507.3862952102142	713.3553785812064	175.9110217028711	-450.2650215955539	781.5720661905298	358.2301209463339	-405.2963146042143	1015.428165841754	937.250649087975	-981.4426936815903	932.2990178601206	806.023557276833	-1123.827809616015	981.5190423226821	674.1543480138097	-1034.053897981356	966.3273005613685	563.1687478418582	-1062.648726427517	914.7402519040588	476.7494104315236	-1150.099628892415	970.3021526992842	374.9755233958829	-1095.697706459286	913.3154706643647	307.1842415148635	-1165.27937326895	932.6489245892517	164.4896474726222	-1144.04678177178	917.9392014684028	130.1807022127708	-1306.335467607339	949.7890858945958	88.2470241248282	-1264.076472690706	873.9900183129074	129.9552929996223	-1076.346481076942	
2	144	811.0769251281358	1543.651371803625	-917.0981623586266	801.8420720064445	1323.641110563626	-879.8887496957881	861.7035488757422	1485.263202267446	-1064.17902768993	686.6142946341273	1546.440259392025	-1035.503926852887	979.9244912627306	1533.872062210656	-973.0762667748455	707.0132409318061	1027.393941861042	-1049.300227694733	935.7288449749956	1053.047423202866	-1048.913504367619	796.0843660784213	1112.000719765075	-873.1915775048579	827.7323600141816	1113.000072643219	-868.7119556998281	661.5537791361821	1132.884781467993	-1028.145895523817	987.8023038056913	1150.596425720217	-953.9188695161636	639.1163823333994	923.3463709565741	-937.7804877269208	726.9106460977146	725.0639823302691	-989.8063355612983	674.1358248280665	699.4256468056901	-849.2483884445255	702.2186633722164	570.9552341822704	-780.8584269838025	752.295931907764	468.7716459743333	-763.773874702761	698.838336497067	456.5491499483843	-630.0084034970055	756.5400576963357	362.7722103781365	-611.6791968675408	728.1886785595524	317.1450690090199	-470.5233078299909	752.8533510450193	155.9411736124883	-501.2801685150937	713.2255855833216	183.3648987879764	-444.7789735252368	781.4590770919781	366.4350235652813	-404.0764614678032	1015.6001613372	934.6068869165754	-980.9331140754297	932.1825364696869	802.6120774414205	-1122.40901808663	981.7776282491718	671.9990885999728	-1034.008150566749	966.1911811988633	561.6022773303647	-1062.664901100513	914.657486114994	475.9129033357854	-1150.622728313118	969.8638398568718	373.6732465641847	-1096.622600107661	913.1027099722661	306.3774867513482	-1166.870711419651	932.0952235599739	163.3675312907089	-1146.266638971684	917.8148018223125	129.4460301473205	-1308.77680543806	949.2340669984906	87.18924757875438	-1266.575694188859	872.9474248276058	128.8544853274205	-1079.036398827215	
3	144.004	811.774609278169	1542.491693485504	-917.5148636065333	802.4489883538845	1322.600672713298	-879.7971279690304	862.0302049759706	1483.857038569617	-1064.618124870339	687.1959185664124	1545.183279536971	-1035.842250138423	980.481115743135	1532.497182357744	-973.7969170924472	707.3782445428475	1026.559313349315	-1049.945286558901	936.2448136824877	1051.135384746985	-1048.45508453005	796.1956479930523	1110.127116133766	-873.2380709568982	827.8761274104791	1111.010370724095	-868.5869007099717	661.6594056640632	1132.025475412785	-1027.217188825251	987.8957051988498	1147.866738023379	-953.3752045894116	639.0593762959918	922.2805727055822	-939.377404614414	725.8710118536522	723.5389675933914	-992.1520159173905	674.1315780275957	697.5001141169319	-851.5894915833908	702.5277962229535	568.9284039091838	-784.2468671074644	751.9506581346614	466.8839610918678	-765.2153033961932	698.9407494718452	458.5594463159624	-631.0709881669956	756.4890291587485	365.3444312968778	-610.3039365226656	728.142082178303	323.6651775714135	-468.1232658925987	752.6421110084755	162.0952971648852	-495.218019590119	713.0932606611466	190.7708220485933	-439.334261632304	781.3485564085457	374.5811073702483	-402.8769367809059	1015.767863427596	932.0086026332797	-980.4386666596171	932.0534824048977	799.3452258527893	-1121.056100343997	982.0262846828097	669.9020827231427	-1034.016054350626	966.0689583428092	560.0708634298575	-1062.707976281776	914.6002639059033	475.074644861112	-1151.156747633544	969.45034175673	372.3808087977382	-1097.532616487916	912.9225257470798	305.5540165886984	-1168.44346322671	931.5741361236603	162.219730302813	-1148.446665766576	917.6749842707691	128.6235686331199	-1311.171553266936	948.6687980466537	86.05039727442762	-1269.01474789067	871.9544547978076	127.7563227499193	-1081.671566989907	
4	144.008	812.4652791866963	1541.31960475286	-917.9296075372158	803.0369861162708	1321.544460369919	-879.696474023557	862.3519674208951	1482.441827046241	-1065.045999764133	687.7760512820773	1543.913052294519	-1036.182009495087	981.0272842474357	1531.105732516942	-974.5073218286708	707.7363311391588	1025.70888156947	-1050.562997975922	936.7517234166372	1049.229045156114	-1047.998672441712	796.3037778988845	1108.223823665862	-873.2698878878998	828.0147088652067	1108.992313977853	-868.4533956791558	661.755441583673	1131.151871878922	-1026.303333202873	987.9861604702676	1145.155077758089	-952.8389849376744	638.9951257939354	921.1905026819003	-940.9311403819695	724.8878407991225	722.0150650015449	-994.484821648137	674.1222214879155	695.5466491385408	-853.9439224600387	702.8339372279879	566.8755911016779	-787.650904343442	751.6146681792528	464.9843594894288	-766.6864863806844	699.0510074781937	460.5339447421204	-632.188682523239	756.4311095515505	367.8792483727129	-609.0066885305869	728.0893828554171	330.1242032192753	-465.8296206406126	752.4091570011393	168.2047026040425	-489.2787853185217	712.9418289981267	198.1287151780688	-434.0178624136014	781.2419066448999	382.6436998820026	-401.7895143671658	1015.929867498394	929.4533626316869	-979.9749767591023	931.9264902079007	796.2900546817567	-1119.829805020555	982.2521265903071	667.870682983196	-1034.115868703016	965.9658483794738	558.5646786287253	-1062.804349377123	914.5697063768038	474.1854771680811	-1151.693035501494	969.066308632489	371.0719700914228	-1098.38213581959	912.7671904942956	304.6584426271984	-1169.912040454791	931.0795155273925	161.0066787803278	-1150.441470745759	917.4866785357279	127.6286800363633	-1313.358861660092	948.0734172789845	84.76410950412664	-1271.221598472249	871.0209649015618	126.641738846751	-1084.082827347622	
